<mxfile host="app.diagrams.net" modified="2023-06-03T00:54:52.967Z" agent="Mozilla/5.0 (X11; Linux x86_64) AppleWebKit/537.36 (KHTML, like Gecko) Chrome/110.0.0.0 Safari/537.36" etag="znfoL2-vVnV9mosht6pw" version="21.3.7" type="device">
  <diagram name="Страница 1" id="Rqne1-Q-YqlPjCGoqIJe">
    <mxGraphModel dx="978" dy="591" grid="1" gridSize="10" guides="1" tooltips="1" connect="1" arrows="1" fold="1" page="1" pageScale="1" pageWidth="500" pageHeight="700" math="1" shadow="0">
      <root>
        <mxCell id="0" />
        <mxCell id="1" parent="0" />
        <mxCell id="8tuHMPIzyi8VBsE8fK2_-6" style="edgeStyle=orthogonalEdgeStyle;rounded=0;orthogonalLoop=1;jettySize=auto;html=1;exitX=0.5;exitY=1;exitDx=0;exitDy=0;entryX=0.5;entryY=0;entryDx=0;entryDy=0;" parent="1" source="8tuHMPIzyi8VBsE8fK2_-1" target="8tuHMPIzyi8VBsE8fK2_-4" edge="1">
          <mxGeometry relative="1" as="geometry" />
        </mxCell>
        <mxCell id="8tuHMPIzyi8VBsE8fK2_-1" value="&lt;font style=&quot;font-size: 16px;&quot;&gt;Начало&lt;/font&gt;" style="rounded=1;whiteSpace=wrap;html=1;arcSize=50;fontSize=14;fontFamily=Times New Roman;" parent="1" vertex="1">
          <mxGeometry x="32.75" y="66.87" width="190" height="56.75" as="geometry" />
        </mxCell>
        <mxCell id="8tuHMPIzyi8VBsE8fK2_-8" style="edgeStyle=orthogonalEdgeStyle;rounded=0;orthogonalLoop=1;jettySize=auto;html=1;exitX=0.5;exitY=1;exitDx=0;exitDy=0;entryX=0.5;entryY=0;entryDx=0;entryDy=0;" parent="1" source="8tuHMPIzyi8VBsE8fK2_-2" target="8tuHMPIzyi8VBsE8fK2_-3" edge="1">
          <mxGeometry relative="1" as="geometry" />
        </mxCell>
        <mxCell id="8tuHMPIzyi8VBsE8fK2_-2" value="&lt;font style=&quot;font-size: 16px;&quot; face=&quot;Times New Roman&quot;&gt;Для каждого значения байта страницы&amp;nbsp; &amp;nbsp; &amp;nbsp; &amp;nbsp; &amp;nbsp;&amp;nbsp;&lt;/font&gt;" style="shape=loopLimit;whiteSpace=wrap;html=1;strokeWidth=1;" parent="1" vertex="1">
          <mxGeometry x="31.879999999999995" y="256.87" width="191.75" height="70" as="geometry" />
        </mxCell>
        <mxCell id="8tuHMPIzyi8VBsE8fK2_-9" style="edgeStyle=orthogonalEdgeStyle;rounded=0;orthogonalLoop=1;jettySize=auto;html=1;exitX=0.5;exitY=1;exitDx=0;exitDy=0;entryX=0.5;entryY=1;entryDx=0;entryDy=0;" parent="1" source="8tuHMPIzyi8VBsE8fK2_-3" target="8tuHMPIzyi8VBsE8fK2_-5" edge="1">
          <mxGeometry relative="1" as="geometry" />
        </mxCell>
        <mxCell id="8tuHMPIzyi8VBsE8fK2_-3" value="&lt;span style=&quot;font-size: 16px;&quot;&gt;&amp;nbsp; &amp;nbsp; &amp;nbsp; &amp;nbsp; &amp;nbsp; &amp;nbsp; &amp;nbsp; &amp;nbsp; &amp;nbsp; &amp;nbsp; &amp;nbsp; &amp;nbsp; &amp;nbsp; &amp;nbsp; &amp;nbsp; &amp;nbsp; &amp;nbsp; &amp;nbsp; &amp;nbsp; &amp;nbsp; &amp;nbsp;&lt;i&gt;++&lt;/i&gt;&lt;/span&gt;" style="shape=process;whiteSpace=wrap;html=1;backgroundOutline=1;fontSize=14;size=0;fontFamily=Times New Roman;" parent="1" vertex="1">
          <mxGeometry x="31" y="356.87" width="193.5" height="65.5" as="geometry" />
        </mxCell>
        <mxCell id="8tuHMPIzyi8VBsE8fK2_-7" style="edgeStyle=orthogonalEdgeStyle;rounded=0;orthogonalLoop=1;jettySize=auto;html=1;exitX=0.5;exitY=1;exitDx=0;exitDy=0;entryX=0.5;entryY=0;entryDx=0;entryDy=0;" parent="1" source="8tuHMPIzyi8VBsE8fK2_-4" target="8tuHMPIzyi8VBsE8fK2_-2" edge="1">
          <mxGeometry relative="1" as="geometry" />
        </mxCell>
        <mxCell id="8tuHMPIzyi8VBsE8fK2_-4" value="&lt;span style=&quot;font-size: 16px;&quot;&gt;Инициализировать массив частот байтов&lt;br&gt;&amp;nbsp; &amp;nbsp; &amp;nbsp; &amp;nbsp; &amp;nbsp; &amp;nbsp; &amp;nbsp; &amp;nbsp; &amp;nbsp; &amp;nbsp; &amp;nbsp; &amp;nbsp; &amp;nbsp; &amp;nbsp; &amp;nbsp; нулями&lt;/span&gt;" style="shape=process;whiteSpace=wrap;html=1;backgroundOutline=1;fontSize=14;size=0;fontFamily=Times New Roman;" parent="1" vertex="1">
          <mxGeometry x="31" y="156.87" width="193.5" height="65.5" as="geometry" />
        </mxCell>
        <mxCell id="OkyKjdB2MbDu-wtJ9sWM-3" style="edgeStyle=orthogonalEdgeStyle;rounded=0;orthogonalLoop=1;jettySize=auto;html=1;exitX=0.5;exitY=0;exitDx=0;exitDy=0;entryX=0.5;entryY=0;entryDx=0;entryDy=0;" edge="1" parent="1" source="8tuHMPIzyi8VBsE8fK2_-5" target="OkyKjdB2MbDu-wtJ9sWM-2">
          <mxGeometry relative="1" as="geometry" />
        </mxCell>
        <mxCell id="8tuHMPIzyi8VBsE8fK2_-5" value="" style="shape=loopLimit;whiteSpace=wrap;html=1;strokeWidth=1;direction=west;fontFamily=Times New Roman;fontSize=14;" parent="1" vertex="1">
          <mxGeometry x="32.75" y="456.87" width="190" height="70" as="geometry" />
        </mxCell>
        <mxCell id="8tuHMPIzyi8VBsE8fK2_-10" style="edgeStyle=orthogonalEdgeStyle;rounded=0;orthogonalLoop=1;jettySize=auto;html=1;exitX=0.5;exitY=1;exitDx=0;exitDy=0;entryX=0.5;entryY=0;entryDx=0;entryDy=0;" parent="1" source="8tuHMPIzyi8VBsE8fK2_-11" target="8tuHMPIzyi8VBsE8fK2_-13" edge="1">
          <mxGeometry relative="1" as="geometry" />
        </mxCell>
        <mxCell id="8tuHMPIzyi8VBsE8fK2_-11" value="&lt;font style=&quot;font-size: 16px;&quot; face=&quot;Times New Roman&quot;&gt;Для каждого&amp;nbsp; &amp;nbsp; &amp;nbsp;равного ненулевым значениям&lt;br&gt;&lt;br&gt;&lt;/font&gt;" style="shape=loopLimit;whiteSpace=wrap;html=1;strokeWidth=1;" parent="1" vertex="1">
          <mxGeometry x="274.26" y="120.62" width="191.75" height="70" as="geometry" />
        </mxCell>
        <mxCell id="8tuHMPIzyi8VBsE8fK2_-17" style="edgeStyle=orthogonalEdgeStyle;rounded=0;orthogonalLoop=1;jettySize=auto;html=1;exitX=0.5;exitY=1;exitDx=0;exitDy=0;entryX=0.5;entryY=0;entryDx=0;entryDy=0;" parent="1" source="8tuHMPIzyi8VBsE8fK2_-13" target="8tuHMPIzyi8VBsE8fK2_-16" edge="1">
          <mxGeometry relative="1" as="geometry" />
        </mxCell>
        <mxCell id="8tuHMPIzyi8VBsE8fK2_-13" value="&lt;span style=&quot;font-size: 16px;&quot;&gt;Найти наименьшее&amp;nbsp; &amp;nbsp;&amp;nbsp;&lt;br&gt;такое, что&lt;br&gt;&lt;br&gt;&lt;/span&gt;" style="shape=process;whiteSpace=wrap;html=1;backgroundOutline=1;fontSize=14;size=0;fontFamily=Times New Roman;" parent="1" vertex="1">
          <mxGeometry x="273.38" y="220.62" width="193.5" height="65.5" as="geometry" />
        </mxCell>
        <mxCell id="OkyKjdB2MbDu-wtJ9sWM-23" style="edgeStyle=orthogonalEdgeStyle;rounded=0;orthogonalLoop=1;jettySize=auto;html=1;exitX=0.5;exitY=0;exitDx=0;exitDy=0;entryX=0.5;entryY=0;entryDx=0;entryDy=0;" edge="1" parent="1" source="8tuHMPIzyi8VBsE8fK2_-14" target="OkyKjdB2MbDu-wtJ9sWM-19">
          <mxGeometry relative="1" as="geometry" />
        </mxCell>
        <mxCell id="8tuHMPIzyi8VBsE8fK2_-14" value="" style="shape=loopLimit;whiteSpace=wrap;html=1;strokeWidth=1;direction=west;fontFamily=Times New Roman;fontSize=14;" parent="1" vertex="1">
          <mxGeometry x="275.13" y="420.62" width="190" height="70" as="geometry" />
        </mxCell>
        <mxCell id="8tuHMPIzyi8VBsE8fK2_-21" style="edgeStyle=orthogonalEdgeStyle;rounded=0;orthogonalLoop=1;jettySize=auto;html=1;exitX=0.5;exitY=1;exitDx=0;exitDy=0;entryX=0.5;entryY=1;entryDx=0;entryDy=0;" parent="1" source="8tuHMPIzyi8VBsE8fK2_-16" target="8tuHMPIzyi8VBsE8fK2_-14" edge="1">
          <mxGeometry relative="1" as="geometry" />
        </mxCell>
        <mxCell id="8tuHMPIzyi8VBsE8fK2_-16" value="&lt;span style=&quot;font-size: 16px;&quot;&gt;Увеличить значение энтропии на&amp;nbsp;&lt;br&gt;&lt;br&gt;&lt;/span&gt;" style="shape=process;whiteSpace=wrap;html=1;backgroundOutline=1;fontSize=14;size=0;fontFamily=Times New Roman;" parent="1" vertex="1">
          <mxGeometry x="275.13" y="320.62" width="193.5" height="65.5" as="geometry" />
        </mxCell>
        <mxCell id="8tuHMPIzyi8VBsE8fK2_-19" value="&lt;font face=&quot;Times New Roman&quot;&gt;&lt;span style=&quot;font-size: 16px;&quot;&gt;$$k \cdot (log_2N - j)$$&lt;br&gt;&lt;/span&gt;&lt;/font&gt;" style="text;html=1;strokeColor=none;fillColor=none;align=center;verticalAlign=middle;whiteSpace=wrap;rounded=0;" parent="1" vertex="1">
          <mxGeometry x="341.88" y="376.12" width="60" height="10" as="geometry" />
        </mxCell>
        <mxCell id="8tuHMPIzyi8VBsE8fK2_-20" style="edgeStyle=orthogonalEdgeStyle;rounded=0;orthogonalLoop=1;jettySize=auto;html=1;exitX=0.5;exitY=1;exitDx=0;exitDy=0;" parent="1" source="8tuHMPIzyi8VBsE8fK2_-19" target="8tuHMPIzyi8VBsE8fK2_-19" edge="1">
          <mxGeometry relative="1" as="geometry" />
        </mxCell>
        <mxCell id="8tuHMPIzyi8VBsE8fK2_-25" value="&lt;font style=&quot;font-size: 16px;&quot;&gt;Конец&lt;/font&gt;" style="rounded=1;whiteSpace=wrap;html=1;arcSize=50;fontSize=14;fontFamily=Times New Roman;" parent="1" vertex="1">
          <mxGeometry x="275.14" y="623.62" width="190" height="56.75" as="geometry" />
        </mxCell>
        <mxCell id="OkyKjdB2MbDu-wtJ9sWM-2" value="A" style="ellipse;whiteSpace=wrap;html=1;aspect=fixed;fontFamily=Times New Roman;fontSize=16;" vertex="1" parent="1">
          <mxGeometry x="87.75999999999999" y="559.87" width="80" height="80" as="geometry" />
        </mxCell>
        <mxCell id="OkyKjdB2MbDu-wtJ9sWM-22" style="edgeStyle=orthogonalEdgeStyle;rounded=0;orthogonalLoop=1;jettySize=auto;html=1;exitX=0.5;exitY=1;exitDx=0;exitDy=0;entryX=0.5;entryY=0;entryDx=0;entryDy=0;" edge="1" parent="1" source="OkyKjdB2MbDu-wtJ9sWM-4" target="8tuHMPIzyi8VBsE8fK2_-11">
          <mxGeometry relative="1" as="geometry" />
        </mxCell>
        <mxCell id="OkyKjdB2MbDu-wtJ9sWM-4" value="A" style="ellipse;whiteSpace=wrap;html=1;aspect=fixed;fontFamily=Times New Roman;fontSize=16;" vertex="1" parent="1">
          <mxGeometry x="331" y="19" width="80" height="80" as="geometry" />
        </mxCell>
        <mxCell id="OkyKjdB2MbDu-wtJ9sWM-8" value="$$src[i]$$" style="text;html=1;strokeColor=none;fillColor=none;align=center;verticalAlign=middle;whiteSpace=wrap;rounded=0;fontFamily=Times New Roman;fontSize=16;" vertex="1" parent="1">
          <mxGeometry x="154.75" y="286.87" width="60" height="30" as="geometry" />
        </mxCell>
        <mxCell id="OkyKjdB2MbDu-wtJ9sWM-10" value="$$bytes\_frequency$$" style="text;html=1;strokeColor=none;fillColor=none;align=center;verticalAlign=middle;whiteSpace=wrap;rounded=0;fontFamily=Times New Roman;fontSize=16;" vertex="1" parent="1">
          <mxGeometry x="69" y="193.37" width="60" height="30" as="geometry" />
        </mxCell>
        <mxCell id="OkyKjdB2MbDu-wtJ9sWM-11" value="$$bytes\_frequency[src[i]]$$" style="text;html=1;strokeColor=none;fillColor=none;align=center;verticalAlign=middle;whiteSpace=wrap;rounded=0;fontFamily=Times New Roman;fontSize=16;" vertex="1" parent="1">
          <mxGeometry x="87.75999999999999" y="373.87" width="60" height="30" as="geometry" />
        </mxCell>
        <mxCell id="OkyKjdB2MbDu-wtJ9sWM-13" value="$$bytes\_frequency$$" style="text;html=1;strokeColor=none;fillColor=none;align=center;verticalAlign=middle;whiteSpace=wrap;rounded=0;fontFamily=Times New Roman;fontSize=16;" vertex="1" parent="1">
          <mxGeometry x="340.13" y="160.62" width="60" height="30" as="geometry" />
        </mxCell>
        <mxCell id="OkyKjdB2MbDu-wtJ9sWM-15" value="$$k,$$" style="text;html=1;strokeColor=none;fillColor=none;align=center;verticalAlign=middle;whiteSpace=wrap;rounded=0;fontFamily=Times New Roman;fontSize=16;" vertex="1" parent="1">
          <mxGeometry x="357.13" y="121.62" width="60" height="30" as="geometry" />
        </mxCell>
        <mxCell id="OkyKjdB2MbDu-wtJ9sWM-24" style="edgeStyle=orthogonalEdgeStyle;rounded=0;orthogonalLoop=1;jettySize=auto;html=1;exitX=0.5;exitY=1;exitDx=0;exitDy=0;entryX=0.5;entryY=0;entryDx=0;entryDy=0;" edge="1" parent="1" source="OkyKjdB2MbDu-wtJ9sWM-19" target="8tuHMPIzyi8VBsE8fK2_-25">
          <mxGeometry relative="1" as="geometry" />
        </mxCell>
        <mxCell id="OkyKjdB2MbDu-wtJ9sWM-19" value="&lt;span style=&quot;font-size: 16px;&quot;&gt;Вернуть значение &lt;br&gt;информационной &lt;br&gt;энтропии&lt;br&gt;&lt;/span&gt;" style="shape=process;whiteSpace=wrap;html=1;backgroundOutline=1;fontSize=14;size=0;fontFamily=Times New Roman;" vertex="1" parent="1">
          <mxGeometry x="273.39" y="523.62" width="193.5" height="65.5" as="geometry" />
        </mxCell>
        <mxCell id="OkyKjdB2MbDu-wtJ9sWM-20" value="$$j$$" style="text;html=1;strokeColor=none;fillColor=none;align=center;verticalAlign=middle;whiteSpace=wrap;rounded=0;fontFamily=Times New Roman;fontSize=16;" vertex="1" parent="1">
          <mxGeometry x="406.63" y="219.62" width="60" height="30" as="geometry" />
        </mxCell>
        <mxCell id="OkyKjdB2MbDu-wtJ9sWM-21" value="$$k \leq logs[j]$$" style="text;html=1;strokeColor=none;fillColor=none;align=center;verticalAlign=middle;whiteSpace=wrap;rounded=0;fontFamily=Times New Roman;fontSize=16;" vertex="1" parent="1">
          <mxGeometry x="340.14" y="256.62" width="60" height="30" as="geometry" />
        </mxCell>
      </root>
    </mxGraphModel>
  </diagram>
</mxfile>
